<svg width="160" height="161" viewBox="0 0 160 161" fill="none" xmlns="http://www.w3.org/2000/svg">
<path d="M79.9997 13.397C43.1997 13.397 13.333 43.2636 13.333 80.0636C13.333 116.864 43.1997 146.73 79.9997 146.73C116.8 146.73 146.666 116.864 146.666 80.0636C146.666 43.2636 116.8 13.397 79.9997 13.397ZM79.9997 33.397C91.0663 33.397 99.9997 42.3303 99.9997 53.397C99.9997 64.4636 91.0663 73.397 79.9997 73.397C68.933 73.397 59.9997 64.4636 59.9997 53.397C59.9997 42.3303 68.933 33.397 79.9997 33.397ZM79.9997 128.064C63.333 128.064 48.5997 119.53 39.9997 106.597C40.1997 93.3303 66.6663 86.0636 79.9997 86.0636C93.2663 86.0636 119.8 93.3303 120 106.597C111.4 119.53 96.6663 128.064 79.9997 128.064Z" fill="#F0F0F0"/>
</svg>
